<svg xmlns="http://www.w3.org/2000/svg" width="420" height="420">
    <g fill="none" fill-rule="nonzero">
        <path fill="#91150B"
              d="M210 0C94 0 0 94 0 210s94 210 210 210 210-94 210-210S325.9 0 210 0Zm167.1 260c5.7 14.7 4.4 30.9-3.4 44.5-7.9 13.6-21.3 22.8-36.8 25.2-3.8.6-6.6 3.4-7.2 7.2-2.4 15.5-11.6 29-25.2 36.8-7.8 4.5-16.8 6.9-25.8 6.9-6.4 0-12.7-1.2-18.7-3.5-1.1-.4-2.2-.6-3.4-.6-1.4 0-4.1.4-6 2.8-9.9 12.6-24.7 19.8-40.6 19.8-15.9 0-30.8-7.2-40.6-19.8-1.9-2.4-4.6-2.8-6-2.8-1.1 0-2.3.2-3.4.6-6 2.3-12.3 3.5-18.7 3.5-9 0-17.9-2.4-25.8-6.9-13.6-7.9-22.8-21.3-25.2-36.8-.6-3.8-3.4-6.6-7.2-7.2-15.5-2.4-29-11.6-36.8-25.2-7.9-13.6-9.1-29.8-3.4-44.5 1.4-3.5.5-7.3-2.1-9.4C28.2 240.7 21 225.9 21 210c0-15.9 7.2-30.8 19.8-40.6 2.7-2.1 3.5-5.9 2.1-9.4-5.7-14.7-4.4-30.9 3.4-44.5 7.9-13.6 21.3-22.8 36.8-25.2 3.8-.6 6.6-3.4 7.2-7.2 2.4-15.5 11.6-29 25.2-36.8 7.8-4.5 16.8-6.9 25.8-6.9 6.4 0 12.7 1.2 18.7 3.5 1.1.4 2.2.6 3.4.6 1.4 0 4.1-.4 6-2.8 9.9-12.6 24.7-19.8 40.6-19.8 15.9 0 30.8 7.2 40.6 19.8 1.9 2.4 4.6 2.8 6 2.8 1.1 0 2.3-.2 3.4-.6 6-2.3 12.3-3.5 18.7-3.5 9 0 17.9 2.4 25.8 6.9 13.6 7.9 22.8 21.3 25.2 36.8.6 3.8 3.4 6.6 7.2 7.2 15.5 2.4 29 11.6 36.8 25.2 7.9 13.6 9.1 29.8 3.4 44.5-1.4 3.5-.5 7.3 2.1 9.4 12.6 9.9 19.8 24.7 19.8 40.6 0 15.9-7.2 30.8-19.8 40.6-2.6 2.1-3.4 5.9-2.1 9.4Z"/>
        <path fill="#FD7BC5"
              d="M374.9 175c-5.3-4.2-6.8-11.3-4.4-17.6 4.7-12.1 4.1-26.2-2.9-38.4-7-12.1-18.9-19.7-31.7-21.7-6.9-1.1-12.1-6.3-13.1-13.1-2-12.9-9.6-24.7-21.7-31.7s-27.3-2.8-39.5 1.9c-6.3 2.4-13.4.9-17.6-4.4-8.2-10.4-19.7-21.9-33.9-21.9s-26.9 6.7-35 17c-4.2 5.3-11.3 6.8-17.6 4.4-12.1-4.7-26.2-4.1-38.4 2.9-12.1 7-16.1 23-18.1 35.9-1.1 6.9-6.3 12.1-13.1 13.1-12.9 2-28.3 5.4-35.3 17.6-7 12.1-7.6 26.2-2.9 38.4 2.4 6.3.9 13.4-4.4 17.6-10.4 8.2-17 20.8-17 35s6.7 26.9 17 35c5.3 4.2 6.8 11.3 4.4 17.6-4.7 12.1-4.1 26.2 2.9 38.4 7 12.1 24 16 36.8 18 6.9 1.1 12.1 6.3 13.1 13.1 2 12.9 4.5 28.5 16.6 35.5 12.1 7 27.7 3.7 39.8-1 6.3-2.4 13.4-.9 17.6 4.4 8.2 10.4 19.3 21 33.5 21s26.9-6.7 35-17c4.2-5.3 11.3-6.8 17.6-4.4 12.1 4.7 26.2 4.1 38.4-2.9 12.1-7 14.7-22.6 16.7-35.5 1.1-6.9 6.3-12.1 13.1-13.1 12.9-2 29.8-5.8 36.8-18 7-12.1 7.6-26.2 2.9-38.4-2.4-6.3-.9-13.4 4.4-17.6 10.4-8.2 17-20.8 17-35 0-14.3-6.7-27-17-35.1Zm-90.7-86c.2-1.9 1.9-3.4 3.9-3.2 1.9.2 3.4 1.9 3.2 3.9l-1.6 17.6c-.2 1.8-1.7 3.2-3.5 3.2h-.3c-1.9-.2-3.4-1.9-3.2-3.9l1.5-17.6Zm-49.1 17.1c1.8-.7 3.9.3 4.5 2.1l6 16.7c.7 1.8-.3 3.9-2.1 4.5-.4.1-.8.2-1.2.2-1.5 0-2.8-.9-3.3-2.3l-6-16.7c-.7-1.8.3-3.8 2.1-4.5Zm-28.4-24.4 11.6-13.4c1.3-1.5 3.5-1.6 5-.4 1.5 1.3 1.6 3.5.4 5L212 86.3c-.7.8-1.7 1.2-2.7 1.2-.8 0-1.7-.3-2.3-.9-1.4-1.2-1.6-3.5-.3-4.9Zm-89 155.1c1.9-.4 3.8.9 4.2 2.8l3.4 17.4c.4 1.9-.9 3.8-2.8 4.2-.2 0-.5.1-.7.1-1.7 0-3.1-1.2-3.5-2.9l-3.4-17.4c-.3-1.9.9-3.8 2.8-4.2Zm-26-.4c-3.9 4-10.2 6.1-18.7 6.1-6.9 0-13-1.4-13.3-1.4l-3-.7-.8-2.9c-.6-2.3-5.5-22.5 3.8-32 3.2-3.3 6.5-4 8.7-4 4.3 0 8.2 2.4 10.5 6.5 1.3 2.3 2 4.9 2 7.5h.2c5.9 0 11.2 3.3 13.3 8.1 2 4.2.9 9-2.7 12.8Zm5.6-59.2-17.7-.2c-2 0-3.5-1.6-3.5-3.6 0-1.9 1.6-3.5 3.5-3.5l17.7.2c2 0 3.5 1.6 3.5 3.6 0 1.9-1.6 3.5-3.5 3.5ZM123.9 300l-17.3 3.8c-.3.1-.5.1-.8.1-1.6 0-3.1-1.1-3.5-2.8-.4-1.9.8-3.8 2.7-4.2l17.3-3.8c1.9-.4 3.8.8 4.2 2.7.6 1.9-.6 3.8-2.6 4.2Zm11.2-139c0 1.9-1.6 3.5-3.5 3.5h-.1c-2 0-3.5-1.6-3.5-3.6l.3-17.7c0-1.9 1.6-3.5 3.5-3.5h.1c2 0 3.5 1.6 3.5 3.6l-.3 17.7Zm5.4-41.1c-5.8-11.9 5.2-29.6 6.4-31.6l1.6-2.6 3 .3c2.3.2 23.1 2.5 28.9 14.4 2 4 1.9 8.3-.3 11.7-2.3 3.6-6.5 5.8-11.3 5.8-1.8 0-3.5-.3-5.1-.9-.6 1.7-1.5 3.3-2.6 4.7-2.7 3.3-6.4 5.2-10.2 5.2-4.4 0-8.2-2.6-10.4-7Zm57.6 179.2c-1.4 13.2-20.2 22.3-22.3 23.3l-2.8 1.3-2.4-1.8c-1.9-1.4-18.2-14.4-16.8-27.5.7-6.5 5.3-10.9 11.6-10.9 4 0 8.4 2 11.4 5.7 2.9-2.3 6.4-3.4 9.5-3.4 3.6 0 6.8 1.4 9 3.8 2.2 2.3 3.2 5.7 2.8 9.5Zm19.6 50.1c-.7.7-1.6 1.1-2.5 1.1-.9 0-1.8-.3-2.5-1l-12.6-12.4c-1.4-1.4-1.4-3.6 0-5s3.6-1.4 5 0l12.6 12.4c1.4 1.2 1.4 3.5 0 4.9Zm33.7-44.4c-.7.6-1.5.9-2.3.9-1 0-2-.4-2.7-1.2l-11.6-13.4c-1.3-1.5-1.1-3.7.4-5 1.5-1.3 3.7-1.1 5 .4l11.6 13.4c1.3 1.3 1.1 3.6-.4 4.9Zm-41.4-33c-34.2 0-61.8-27.7-61.8-61.8 0-34.2 27.7-61.8 61.8-61.8 34.2 0 61.8 27.7 61.8 61.8 0 34.1-27.7 61.8-61.8 61.8Zm84.2 52.3-8.2 15.7c-.6 1.2-1.9 1.9-3.1 1.9-.6 0-1.1-.1-1.6-.4-1.7-.9-2.4-3-1.5-4.8l8.2-15.7c.9-1.7 3-2.4 4.8-1.5 1.6.9 2.3 3.1 1.4 4.8Zm14.5-48.4c-1.3 5.9-5.7 9.6-11.3 9.6-4.5 0-9.2-2.5-12-7-2.5 1.6-5.3 2.5-8.3 2.5-3.9 0-7.5-1.6-9.7-4.4-2.2-2.8-3-6.4-2.1-10.3 2.8-12.9 22.5-20 24.7-20.8l2.9-1 2.2 2.1c1.6 1.7 16.4 16.4 13.6 29.3ZM307.3 159c-1-3.2-.8-7.1.9-10.8-4.7-2.2-7.6-6.5-8.3-10.5-1-5.8 2.2-10.9 8-13 1.8-.6 3.7-.9 5.7-.9 11.3 0 23.6 9.7 25 10.8l2.4 1.9-.6 3c-.5 2.3-5 22.7-17.5 27.1-1.6.6-3.1.8-4.6.8-5.1.1-9.4-3.3-11-8.4Zm11.4 48.9c-.5 0-.9-.1-1.4-.3-1.8-.8-2.6-2.8-1.9-4.6l6.9-16.3c.8-1.8 2.8-2.6 4.6-1.9 1.8.8 2.6 2.8 1.9 4.6l-6.9 16.3c-.5 1.4-1.8 2.2-3.2 2.2Zm21.3 88.8c-.7.6-1.6 1-2.4 1-.9 0-1.9-.4-2.6-1.1l-12.1-12.9c-1.3-1.4-1.3-3.7.1-5 1.4-1.3 3.7-1.3 5 .1l12.1 12.9c1.4 1.4 1.3 3.7-.1 5Zm13.1-42.3c-2 0-3.6-1.5-3.6-3.5l-.3-17.7c0-2 1.5-3.6 3.5-3.6h.1c1.9 0 3.5 1.5 3.5 3.5l.3 17.7c0 1.9-1.5 3.5-3.5 3.6Z"/>
        <path fill="#FFD824"
              d="M88.1 232.9c-7.5 7.8-27.2 3.2-27.2 3.2s-5-19.5 2.5-27.3c7.1-7.3 16.7 3.3 10.9 13.1-.2.3.2.7.5.5 9.6-6.1 20.5 3.1 13.3 10.5Zm71.3-124.2c-.1-.4.4-.6.6-.3 7.2 8.8 20.5 3.4 16-5.8-4.7-9.7-24.8-11.6-24.8-11.6s-10.9 17-6.2 26.7c4.5 9.2 16.8 2.1 14.4-9Zm16.8 189.8c-.1.4-.6.3-.7-.1-1.5-11.3-15.5-13.8-16.6-3.6-1.2 10.8 14.9 23 14.9 23s18.3-8.6 19.4-19.3c1.1-10.2-13.2-10.7-17 0Zm115.3-48.4s-19.1 6.5-21.4 17.1c-2.2 10 11.9 12.1 16.9 1.9.2-.3.6-.2.7.1.2 11.4 13.9 15.4 16.1 5.4 2.3-10.5-12.3-24.5-12.3-24.5Zm18.1-120.7c-9.6 3.5-3.9 16.5 7.4 15.3.4 0 .5.4.2.6-9.5 6.2-5.6 20 4 16.5 10.2-3.6 14.2-23.4 14.2-23.4s-15.6-12.6-25.8-9Z"/>
    </g>
</svg>
