<svg xmlns="http://www.w3.org/2000/svg" width="420" height="421"><g fill="none" fill-rule="nonzero"><path fill="#FFD824" d="M210 .9C94 .9 0 94.9 0 210.9s94 210 210 210 210-94 210-210S326 .9 210 .9Zm121 342.6c-32.7 29-72 43.7-116.6 43.7-45.2 0-85.1-15.9-100.9-26.5-31.8-21.5-49.3-36-62.9-60.4-20.7-37-46.7-111.6 11.4-196C107.7 38 172.3 28.1 206.7 28.1c11.6 0 19.4 1.1 21.1 1.4 76.7 6.4 111.5 45.2 131 73.9 9.6 14.1 13.1 24.2 17.9 38.2 2.1 6 4.4 12.8 7.7 21.1.3.9 34.9 102.6-53.4 180.8Z"/><g fill="#FD7BC5"><path d="M114 189c26.9-49.3 47.1-76.7 115.4-91.9 39.3-8.7 57-31.9 64.5-42.8-15.9-7.9-35.6-14.2-59.9-16.9-.7 1.1-1.3 2.2-2.1 3.2-7.9 11.3-19.6 18.4-31.4 19.1-23.3 1.4-53.6 5.9-67.2 47.1-9.9 30-22.3 32.6-76.5 52-6.6 2.3-12.1 5.1-16.9 8.1-8.4 30.1-7.2 57.2-2.4 79.1 26.6-5.9 57.3-21.7 76.5-57Z"/><path d="M123.4 95.3c18-38.6 52.3-45 76.6-46.4 7.9-.5 15.9-5.3 21.9-12.9C201 33.9 121 31.3 68 108.3c-10.3 15-17.8 29.6-23.1 43.6 2.6-1.2 5.4-2.3 8.3-3.4 51.9-18.5 58.2-27.5 70.2-53.2Zm2.7 175c12.6-7.1 23.3-11.7 33.5-15.5-10.2-11-16.4-25.7-16.4-41.9 0-34.2 27.7-61.8 61.8-61.8 30.8 0 56.3 22.6 61 52.1 15.6-15.6 23.4-35.1 29.9-46.3 2.6-4.5 4.7-8 6.5-10.4 11.7-15.5 27-30.5 53.7-33.7-1.1-1.7-2.2-3.5-3.5-5.4-9-13.3-23.6-32.7-49.3-47.9-8.4 12.8-25.9 30.1-61.7 44.7-62.7 25.6-84.3 43.4-110 90.6-20 36.7-60.8 54.9-91.4 61.8 5.2 18.3 12.3 32.2 16.7 40 5.3 9.5 11.3 17.5 18.7 25 6.5-12.5 21.2-34.9 50.5-51.3Z"/><path d="M240.4 288.4c7.2-2.2 14.7-4.4 22.4-7 34.4-11.6 41.5-26.2 49.7-43 4.4-8.9 8.9-18.2 17.5-27.5 18.1-19.6 41.5-20.5 52.8-21.2-1.6-12.7-4.2-21.5-5.3-24.4-7.5-19.1-10.2-30.4-15.7-42.1-25.1 1.2-36.5 16.2-48.4 32.1-1.4 1.9-3.4 5.3-5.8 9.3-7.8 13.2-20.4 34.7-40.9 52.8-2.4 32-29 57.2-61.6 57.2-13.5 0-26-4.4-36.2-11.8-11.4 3.9-23.2 8.7-37.4 16.7-29.4 16.5-42.8 39.6-47.6 49.7 9 7.9 19.9 15.8 33.7 25.1 6.4 4.4 18.5 10.3 34.2 15.3 18-55.9 48.2-69.1 88.6-81.2Zm35 51c-15.9 11.9-24.8 26.4-29.7 37.6 26.9-4.8 54.7-16.4 80.4-39.1 19.1-16.9 32.2-35 41-52.9-17.1 15.4-37.2 25.1-55.7 34.1-13.3 6.6-25.9 12.7-36 20.3Z"/><path d="M383.8 200.4c-9.3.6-27.6 4-43.5 21.2-7.5 8.1-11.5 16.3-15.7 24.9-8.5 17.5-17.3 35.5-56 48.5-7.9 2.7-15.4 4.9-22.7 7.1-38.5 11.5-67.4 20.2-83.7 70.7 20.2 5.3 44.9 8.6 71.1 5.9 4.7-13.1 9.4-31.9 30.1-47.5 10.9-8.2 29.4-15 43.3-21.8 26.5-12.8 53.7-26.1 71.7-54.1 5.5-20.4 6.4-39.5 5.4-54.9Z"/></g></g></svg>
