<svg xmlns="http://www.w3.org/2000/svg" width="420" height="420">
    <g fill="none" fill-rule="nonzero">
        <path fill="#91150B"
              d="M210 0C94 0 0 94 0 210s94 210 210 210 210-94 210-210S326 0 210 0Zm167.2 260.1c5.7 14.7 4.4 30.9-3.4 44.5-7.9 13.6-21.3 22.8-36.8 25.2-3.8.6-6.6 3.4-7.2 7.2-2.4 15.5-11.6 29-25.2 36.8-7.8 4.5-16.8 6.9-25.8 6.9-6.4 0-12.7-1.2-18.7-3.5-1.1-.4-2.2-.6-3.4-.6-1.4 0-4.1.4-6 2.8-9.9 12.6-24.7 19.8-40.6 19.8-15.9 0-30.8-7.2-40.6-19.8-1.9-2.4-4.6-2.8-6-2.8-1.1 0-2.3.2-3.4.6-6 2.3-12.3 3.5-18.7 3.5-9 0-17.9-2.4-25.8-6.9-13.6-7.9-22.8-21.3-25.2-36.8-.6-3.8-3.4-6.6-7.2-7.2-15.5-2.4-29-11.6-36.8-25.2-7.9-13.6-9.1-29.8-3.4-44.5 1.4-3.5.5-7.3-2.1-9.4-12.6-9.9-19.8-24.7-19.8-40.6 0-15.9 7.2-30.8 19.8-40.6 2.7-2.1 3.5-5.9 2.1-9.4-5.7-14.7-4.4-30.9 3.4-44.5 7.9-13.6 21.3-22.8 36.8-25.2 3.8-.6 6.6-3.4 7.2-7.2 2.4-15.5 11.6-29 25.2-36.8 7.8-4.5 16.8-6.9 25.8-6.9 6.4 0 12.7 1.2 18.7 3.5 1.1.4 2.2.6 3.4.6 1.4 0 4.1-.4 6-2.8 9.9-12.6 24.7-19.8 40.6-19.8 15.9 0 30.8 7.2 40.6 19.8 1.9 2.4 4.6 2.8 6 2.8 1.1 0 2.3-.2 3.4-.6 6-2.3 12.3-3.5 18.7-3.5 9 0 17.9 2.4 25.8 6.9 13.6 7.9 22.8 21.3 25.2 36.8.6 3.8 3.4 6.6 7.2 7.2 15.5 2.4 29 11.6 36.8 25.2 7.9 13.6 9.1 29.8 3.4 44.5-1.4 3.5-.5 7.3 2.1 9.4 12.6 9.9 19.8 24.7 19.8 40.6 0 15.9-7.2 30.8-19.8 40.6-2.6 2-3.5 5.8-2.1 9.4Z"/>
        <path fill="#FFD824"
              d="M375 175c-5.3-4.2-6.8-11.3-4.4-17.6 4.7-12.1 4.1-26.2-2.9-38.4-7-12.1-18.9-19.7-31.7-21.7-6.9-1.1-12.1-6.3-13.1-13.1-2-12.9-9.6-24.7-21.7-31.7s-27.3-2.8-39.5 1.9c-6.3 2.4-13.4.9-17.6-4.4-8.2-10.4-19.7-21.9-33.9-21.9s-26.9 6.7-35 17c-4.2 5.3-11.3 6.8-17.6 4.4-12.1-4.7-26.2-4.1-38.4 2.9-12.1 7-16.1 23-18.1 35.9-1.1 6.9-6.3 12.1-13.1 13.1-12.9 2-28.3 5.4-35.3 17.6-7 12.1-7.6 26.2-2.9 38.4 2.4 6.3.9 13.4-4.4 17.6-10.4 8.2-17 20.8-17 35s6.7 26.9 17 35c5.3 4.2 6.8 11.3 4.4 17.6-4.7 12.1-4.1 26.2 2.9 38.4 7 12.1 24 16 36.8 18 6.9 1.1 12.1 6.3 13.1 13.1 2 12.9 4.5 28.5 16.6 35.5 12.1 7 27.7 3.7 39.8-1 6.3-2.4 13.4-.9 17.6 4.4 8.2 10.4 19.3 21 33.5 21s26.9-6.7 35-17c4.2-5.3 11.3-6.8 17.6-4.4 12.1 4.7 26.2 4.1 38.4-2.9 12.1-7 14.7-22.6 16.7-35.5 1.1-6.9 6.3-12.1 13.1-13.1 12.9-2 29.8-5.8 36.8-18 7-12.1 7.6-26.2 2.9-38.4-2.4-6.3-.9-13.4 4.4-17.6 10.4-8.2 17-20.8 17-35s-6.7-26.9-17-35.1Zm-120.7-72.8c.2-1.5 1-3 2.4-3.9l23.7-16.8c2.6-1.9 6.2-1.2 8.1 1.4 1.9 2.6 1.2 6.2-1.4 8.1l-23.7 16.8c-2.6 1.9-6.2 1.2-8.1-1.4-.9-1.2-1.2-2.7-1-4.2Zm-15.4 20.3c-.4 3.2-3.4 5.4-6.6 4.9l-28.7-4.1c-3.2-.5-5.4-3.4-4.9-6.6.2-1.5 1-2.8 2.1-3.7 1.2-1 2.8-1.4 4.4-1.2l28.7 4.1c3.3.5 5.5 3.5 5 6.6Zm-41.7-64.8c1.8-2.7 5.4-3.4 8-1.7l24.2 15.9c2.7 1.8 3.4 5.4 1.7 8-.8 1.3-2.1 2.1-3.5 2.5-1.5.4-3.1.1-4.5-.8l-24.2-15.9c-2.8-1.7-3.5-5.3-1.7-8Zm-45.6 58.8 6.9-28.2c.8-3.1 3.9-5 7-4.3 3.1.8 5 3.9 4.3 7l-6.9 28.2c-.8 3.1-3.9 5-7 4.3-1.5-.4-2.7-1.3-3.5-2.5-.9-1.2-1.2-2.8-.8-4.5Zm-55.7.3 24.8-15.1c2.7-1.7 6.3-.8 8 1.9.8 1.3 1 2.8.7 4.2-.3 1.5-1.2 2.9-2.7 3.8l-24.8 15.1c-2.7 1.7-6.3.8-8-1.9-1.6-2.8-.8-6.4 2-8ZM93.5 220l18.8-22.1c2.1-2.4 5.7-2.7 8.2-.7 1.2 1 1.9 2.4 2 3.8.2 1.5-.3 3.1-1.3 4.4l-18.8 22.1c-2.1 2.4-5.7 2.7-8.2.7-2.5-2.1-2.8-5.8-.7-8.2Zm-27-17.8c-1.5-.5-2.6-1.5-3.3-2.7-.7-1.4-.9-3-.4-4.6l8.9-27.6c1-3.1 4.3-4.7 7.3-3.7s4.7 4.3 3.7 7.3l-8.9 27.6c-1 3.1-4.2 4.7-7.3 3.7Zm17.7 68.4c-3.1-.6-5.2-3.7-4.6-6.8.3-1.5 1.2-2.8 2.3-3.6 1.3-.9 2.9-1.3 4.5-1l28.5 5.6c3.1.6 5.2 3.7 4.6 6.8-.6 3.1-3.7 5.2-6.8 4.6l-28.5-5.6Zm55.7 61.7c-2.4 2.1-6.1 2-8.2-.4l-19.4-21.6c-2.1-2.4-2-6.1.4-8.2 1.1-1 2.6-1.5 4-1.5 1.5 0 3.1.7 4.2 1.9l19.4 21.6c2.2 2.4 2 6.1-.4 8.2Zm2.2-162.2c-.9 1.3-2.1 2.1-3.5 2.4-1.5.3-3.1.1-4.5-.8L110 155.6c-2.7-1.8-3.4-5.4-1.6-8.1 1.8-2.7 5.4-3.4 8.1-1.6l24.1 16.1c2.6 1.9 3.3 5.5 1.5 8.1ZM166 329.6c-1.5.2-3-.2-4.2-1.1-1.3-.9-2.1-2.3-2.4-4l-3.8-28.8c-.4-3.2 1.8-6.1 5-6.5 3.2-.4 6.1 1.8 6.5 5l3.8 28.8c.5 3.2-1.7 6.2-4.9 6.6ZM148.2 210c0-34.2 27.7-61.8 61.8-61.8 34.2 0 61.8 27.7 61.8 61.8 0 34.1-27.6 61.9-61.8 61.9-34.1 0-61.8-27.7-61.8-61.9Zm77.6 138.4c-1 1.2-2.3 1.9-3.7 2.1-1.5.2-3.1-.2-4.4-1.3l-22.6-18.3c-2.5-2-2.9-5.7-.8-8.2 2-2.5 5.7-2.9 8.2-.8l22.5 18.3c2.4 2 2.8 5.7.8 8.2Zm14.8-57.3c-.6-1.4-.6-2.9-.1-4.3s1.6-2.7 3.2-3.3l26.7-11.4c2.9-1.3 6.4.1 7.6 3.1 1.3 2.9-.1 6.4-3.1 7.6l-26.7 11.4c-2.9 1.2-6.3-.2-7.6-3.1Zm51.6 36.2c-.1 1.5-.8 2.9-1.9 3.9-1.1 1-2.7 1.6-4.3 1.5l-28.9-2c-3.2-.2-5.6-3-5.4-6.2.2-3.2 3-5.6 6.2-5.4l28.9 2c3.2.2 5.6 3 5.4 6.2Zm-1.7-181.7c-2 2.5-5.7 2.9-8.2.9-1.2-1-1.9-2.3-2.1-3.7-.2-1.5.2-3.1 1.2-4.4l18.1-22.7c2-2.5 5.7-2.9 8.2-.9 2.5 2 2.9 5.7.9 8.2l-18.1 22.6Zm17.3 21c1-3.1 4.2-4.8 7.3-3.8l27.7 8.7c3.1 1 4.8 4.2 3.8 7.3-.5 1.5-1.5 2.6-2.7 3.3-1.3.8-3 1-4.6.5l-27.7-8.7c-3-1-4.7-4.2-3.8-7.3Zm25.6 127.9c-1.5.3-3 0-4.2-.8-1.3-.8-2.3-2.1-2.6-3.8l-5.8-28.4c-.6-3.1 1.4-6.2 4.5-6.8 3.1-.6 6.2 1.4 6.8 4.5l5.8 28.4c.7 3.2-1.3 6.2-4.5 6.9Zm13.2-63.2c-.8 1.3-2.1 2.2-3.5 2.5-1.5.4-3.1.2-4.6-.7L314 217.8c-2.7-1.7-3.6-5.3-1.9-8 1.7-2.7 5.3-3.6 8-1.9l24.6 15.3c2.8 1.8 3.6 5.4 1.9 8.1Z"/>
    </g>
</svg>
